<svg width="512" height="512" viewBox="0 0 512 512" fill="none" xmlns="http://www.w3.org/2000/svg">
<path d="M358.948 387.705V133H407.899V209.689L405.288 260.434L406.756 274.793L405.125 263.208C406.43 253.418 408.986 244.172 412.794 235.469C416.71 226.658 422.475 219.533 430.089 214.094C437.704 208.655 447.603 205.936 459.786 205.936C475.341 205.936 487.905 211.212 497.478 221.763C507.159 232.206 512 248.196 512 269.734V387.705H461.581V288.662C461.581 273.759 459.786 263.153 456.196 256.844C452.715 250.535 446.787 247.381 438.411 247.381C432.428 247.381 426.88 249.502 421.768 253.744C416.655 257.878 412.522 263.317 409.367 270.061V387.705H358.948Z" fill="url(#paint0_linear_196_10799)"/>
<path d="M238.186 391.294C222.087 391.294 209.741 385.964 201.147 375.304C192.554 364.535 188.257 348.327 188.257 326.68V209.526H238.512V319.501C238.512 332.445 240.362 340.767 244.06 344.465C247.867 348.055 252.871 349.85 259.072 349.85C266.142 349.85 272.234 347.674 277.346 343.323C282.459 338.972 286.429 333.751 289.258 327.659V209.526H339.513V387.705H294.968L290.563 320.48L292.358 334.023C290.835 346.423 287.735 356.921 283.057 365.514C278.489 373.999 272.451 380.417 264.946 384.768C257.549 389.119 248.629 391.294 238.186 391.294Z" fill="url(#paint1_linear_196_10799)"/>
<path d="M51.3978 387.705L37.2022 341.202H61.1879C74.1325 341.202 84.7928 338.809 93.1688 334.023C101.653 329.236 107.963 321.404 112.096 310.527C116.339 299.649 118.46 285.127 118.46 266.961C118.46 249.012 116.556 234.98 112.749 224.864C108.942 214.747 102.578 207.622 93.6583 203.489C84.8472 199.355 72.8816 197.288 57.7614 197.288H36.2232L51.3978 150.459H64.6144C99.8586 150.459 126.455 160.14 144.403 179.503C162.461 198.757 171.489 227.692 171.489 266.308C171.489 292.306 167.301 314.334 158.925 332.391C150.658 350.448 138.529 364.209 122.539 373.672C106.657 383.027 87.2947 387.705 64.4512 387.705H51.3978ZM0 387.705V150.459H51.3978V387.705H0Z" fill="url(#paint2_linear_196_10799)"/>
<defs>
<linearGradient id="paint0_linear_196_10799" x1="435.474" y1="133" x2="435.474" y2="387.705" gradientUnits="userSpaceOnUse">
<stop stop-color="#FFD600"/>
<stop offset="1" stop-color="#E98414"/>
</linearGradient>
<linearGradient id="paint1_linear_196_10799" x1="263.885" y1="209.526" x2="263.885" y2="391.294" gradientUnits="userSpaceOnUse">
<stop stop-color="#FFD600"/>
<stop offset="1" stop-color="#E98414"/>
</linearGradient>
<linearGradient id="paint2_linear_196_10799" x1="85.7446" y1="150.459" x2="85.7446" y2="387.705" gradientUnits="userSpaceOnUse">
<stop stop-color="#FFD600"/>
<stop offset="1" stop-color="#E98414"/>
</linearGradient>
</defs>
</svg>
