<?xml version="1.0" standalone="no"?>
<!DOCTYPE svg PUBLIC "-//W3C//DTD SVG 20010904//EN"
 "http://www.w3.org/TR/2001/REC-SVG-20010904/DTD/svg10.dtd">
<svg version="1.0" xmlns="http://www.w3.org/2000/svg"
 width="512.000000pt" height="512.000000pt" viewBox="0 0 512.000000 512.000000"
 preserveAspectRatio="xMidYMid meet">
<metadata>
Created by potrace 1.14, written by Peter Selinger 2001-2017
</metadata>
<g transform="translate(0.000000,512.000000) scale(0.100000,-0.100000)"
fill="#000000" stroke="none">
<path d="M3590 2516 l0 -1273 250 0 c138 0 250 3 251 6 0 3 2 269 2 591 l2
585 27 45 c64 109 174 180 273 175 31 -2 73 -12 93 -23 62 -32 90 -84 118
-217 3 -16 7 -280 9 -585 2 -305 3 -560 4 -566 1 -8 76 -11 252 -11 l250 0 -3
681 c-4 670 -5 682 -26 754 -32 104 -66 167 -125 230 -106 111 -215 152 -392
148 -181 -5 -260 -43 -386 -186 -30 -35 -94 -174 -109 -240 -18 -78 -30 -95
-24 -35 13 152 15 243 20 698 l5 497 -246 0 -245 0 0 -1274z"/>
<path d="M0 2429 l0 -1187 403 3 c221 1 413 5 427 8 14 3 41 8 60 11 68 11 95
17 154 37 478 161 717 643 663 1339 -41 525 -301 853 -748 944 -131 27 -164
29 -566 30 l-393 2 0 -1187z m750 706 c230 -31 348 -133 400 -343 38 -155 45
-405 16 -602 -22 -149 -83 -283 -165 -359 -82 -76 -212 -118 -377 -120 l-110
-2 1 718 c1 395 3 719 4 721 1 3 186 -6 231 -13z"/>
<path d="M1885 3020 c-1 -3 -2 -302 -1 -665 3 -734 4 -751 70 -890 59 -123
142 -198 264 -235 52 -16 85 -19 185 -16 72 2 136 9 157 17 177 71 275 187
335 401 17 60 24 75 25 53 1 -16 3 -46 5 -65 1 -19 6 -89 10 -155 4 -66 9
-136 10 -155 2 -19 4 -42 4 -51 1 -15 25 -16 224 -15 l222 1 1 880 c0 484 -1
885 -3 890 -2 7 -92 10 -251 10 l-247 0 -2 -593 -1 -593 -25 -42 c-36 -59
-101 -122 -155 -148 -90 -44 -234 -26 -277 34 -9 12 -23 47 -32 77 -15 48 -17
129 -17 660 l-1 605 -248 0 c-137 0 -250 -2 -252 -5z"/>
</g>
</svg>
